<?xml version="1.0" encoding="utf-8"?>
<!-- Generator: Adobe Illustrator 23.0.2, SVG Export Plug-In . SVG Version: 6.00 Build 0)  -->
<svg version="1.1" id="Capa_1" xmlns="http://www.w3.org/2000/svg" xmlns:xlink="http://www.w3.org/1999/xlink" x="0px" y="0px"
	 viewBox="0 0 512 512" style="enable-background:new 0 0 512 512;" xml:space="preserve">
<g>
	<path d="M251,150c37,0,67-30.2,67-67.5c0-37.3-30-67.5-67-67.5s-67,30.2-67,67.5C184,119.8,214,150,251,150z M276.8,50.8
		c5.6,2.3,9.6,8.4,14.3,12.9c0.4,0.4,0.6,1.2,1.1,2.4c-1.1,1.3-2.3,2.9-3.7,4.3c-13.3,13.4-26.8,26.5-39.9,40.1
		c-4,4.1-6.3,3.5-9.9-0.3c-7.5-8-15.3-15.8-23.3-23.3c-3.8-3.5-4.8-6.3-0.2-9.8c2.4-1.9,4.6-4.1,6.5-6.5c3.6-4.7,6.4-4.2,10.6-0.1
		c11.3,11.2,11.5,11,22.9-0.3c3.6-3.7,7.1-7.5,11-10.9C269.8,56.2,272.9,49.2,276.8,50.8z"/>
	<path d="M251.4,378.9c-27.3,0.1-54.6,0.2-82,0.3c4.6,27.3,9.4,54.7,13.7,82c1.2,7.4,4.7,12.5,10.7,16.4c11.3,0.1,22.6,0.2,33.9,0.3
		c2.4,0,5.2,0.5,6.4-2.2c6.8-14.4,17.1-27.6,17.4-44.5C251.9,413.9,251.5,396.4,251.4,378.9z"/>
	<path d="M366.8,412c0.1-2.4,0.4-4.8,0.3-7.2c-0.1-8.2,2.7-18.6-1.4-23.9c-4.3-5.7-15.4-1.9-23.4-1.7c-6.9,0.1-8.5-2.2-8.4-8.7
		c0.4-25.3,0.1-50.7,0.1-76c0-14.8,0-14.8-14.5-14.4c-0.7,0-1.3,0.2-2,0.3c-16.5-0.9-16.4-0.9-16.5,15.2
		c-0.1,27.8-0.1,55.6-0.2,83.3c-5.4,0.1-10.9,0.3-16.3,0.4c-16.5-0.9-16.5-0.9-16.4,15.2c0,5.8,0.2,11.6,0.3,17.5
		c1.4,23.4-3.9,45.2-17.4,65.6h17.2c-1.6-5.6,1.8-9.9,4-14.3c6.3-12.3,9.9-25.2,9.5-39.2c-0.1-4.2-0.6-8.7,2.5-12.1
		c0.1,0.1,0.2,0.2,0.3,0.4c2.9,23.8-4.3,45.1-16.3,65.2c9.6,0,19.2,0,28.8,0c0-14,0-28,0-42.1c0-3.2-1.1-7.4,4.6-7
		c5,0.4,3.5,4.3,3.5,7c0.1,14,0.1,28,0.1,42.1h24.7c0-14,0-28,0-42.1c0-3.2-1.1-7.4,4.6-7c5,0.4,3.5,4.3,3.5,7
		c0.1,14,0.1,28,0.1,42.1h46.3C369.7,457,365.7,435.1,366.8,412z"/>
	<path d="M170.5,377.4c7.3-2.9,14.9-1.7,22.3-1.8c15-0.2,30.1-0.1,45.1,0c4.7,0,9.7-0.5,13.5,3.3c0.8-16.4,0.8-16.4,18-16.4
		c2.4,0,4.9-0.3,7.2,0.1c7.1,1.2,8.4-2.2,8.3-8.6c0-6-1.2-8.2-7.9-8.1c-40.4,0.3-80.9,0.1-121.3,0.2c-11.3,0-18.1,5.3-19.3,14.4
		c-1.2,9.3,4.3,15.8,16.1,18.7c5.3,0,10.6,0,16,0.1C169,378.6,169.6,378,170.5,377.4z"/>
	<path d="M180.7,463.7c-5.1-25.6-9-51.4-13-77.1c-0.4-2.2-0.6-4.6,0.4-6.6c-5.2,2.9-10.3,2.6-15.4-0.9c4.2,25,8.6,49.9,12.5,74.9
		c3.4,21.4,7.1,24.6,28.8,23.6C186.1,476.3,182.2,471,180.7,463.7z"/>
	<path d="M416.7,198C416.7,198,416.7,197.9,416.7,198C416.7,197.9,416.7,197.9,416.7,198c20.9,0,41.8,0,62.6,0
		c-2.3-4.6-4.9-6.7-7.5-8.8c-18.2-15.4-38.5-28.2-55.4-45.1c0,0,0,0,0,0c0,0,0,0,0,0c0.1-20.6,0.3-41.2,0.4-61.7
		c16.3-0.1,16.3-0.1,16.3-16.1c0-2.4-0.3-4.8,0.1-7.2c1.1-7.5-1.6-10.1-9.5-9.9c-18.8,0.6-37.6,0.2-56.4,0.2
		c-16.6,0-16.6,0-16.6,16.9c0,16,0,16,16.3,16.1h0c-0.1,8.2-0.3,16.3-0.4,24.5c0,0,0,0,0,0c-10.3-8.1-20.6-16.2-32-25.2
		c-0.3,3.9-0.4,5.6-0.6,7.3c-4.7,45.3-41.4,77.4-86.7,75.8c-34.6-1.2-62.6-24.1-75.8-62c-1-6.5-1.9-13.1-3.1-21.1
		c-49.2,38.7-97.2,76.4-147.2,115.7c13.6,0,24.1,0,34.6,0c0,0,0,0,0,0c10.3,0.2,20.6,0.5,30.9,0.7h0c0,36.7,0.1,73.4,0.1,110.2
		c0,42.6,0.1,85.1-0.1,127.7c0,7.2,2.1,9.8,9.3,9.3c7.9-0.5,15.8-0.2,23.7-0.2c6.5,0,13-0.2,19.4,0.1c6.9,0.4,8.1-3,7-8.9
		c-1.5-7.6-1.9-15.5-4-23c-2.2-7.7,0.4-17.5-6.8-22.8c-7.2-5.3-11.9-11.8-15.4-19.6c0,0,0,0,0,0c0-5.5,0-11,0-16.5c0,0,0,0,0,0
		c0,0,0,0,0,0c7.5-17.9,20.7-25.4,40.2-25c38.4,0.8,76.9,0.1,115.3,0.4c7.2,0,9.6-2.2,9.4-9.4c-0.5-15.8,0.1-31.6-0.3-47.4
		c-0.2-7.1,2-9.7,9.3-9.5c15.8,0.5,31.6,0.6,47.4,0c8.2-0.3,9.7,3,9.6,10.3c-0.4,21.3-0.1,42.5-0.1,63.8c0,24.2,0,24.4,24.4,24.9
		c6.8,0.1,8.9,2.4,8.7,9c-0.4,17.2-0.1,34.3-0.1,51.5c0,22.2,0,21.8,21.6,22.3c9,0.2,11.6-2.3,11.6-11.5
		C416.5,355.1,416.7,276.5,416.7,198z M170.4,311.8c-5.4-5.5-8.3-12-16.2-14.4c5.5-5.1,11.9-8.2,14.4-16.2c5,5.8,7.9,12.5,18,14.5
		C178.1,300.6,172.6,304.1,170.4,311.8z M202.5,279.5c-4.1-7-7.8-12.7-17.5-15.5c9-4.2,13.4-8.7,17-16.2c4,6.9,7.8,12.5,16.3,15.1
		C211.3,267.5,205.8,271.4,202.5,279.5z M235.9,313.7c-4.6-8.6-8.4-13.7-16.2-16.2c6.3-5,12.2-8.5,15.1-16.6
		c4.5,6.6,7.9,12.5,16.8,14.9C244.4,300.6,238.4,304,235.9,313.7z"/>
</g>
</svg>
